<?xml version="1.0" encoding="UTF-8"?>
<svg width="463px" height="463px" viewBox="0 0 463 463" version="1.1" xmlns="http://www.w3.org/2000/svg" xmlns:xlink="http://www.w3.org/1999/xlink">
    <!-- Generator: Sketch 41 (35326) - http://www.bohemiancoding.com/sketch -->
    <title>Page 1 Copy 2</title>
    <desc>Created with Sketch.</desc>
    <defs>
        <polygon id="path-1" points="5.68434325e-13 0.615068085 5.68434325e-13 48.1495362 50.4165752 48.1495362 50.4165752 0.615068085 5.68434189e-13 0.615068085"></polygon>
        <polygon id="path-3" points="45.5815263 0.554680851 0.316037226 0.554680851 0.316037226 62.0976979 45.5815263 62.0976979 45.5815263 0.554680851"></polygon>
        <polygon id="path-5" points="52.6509781 39.167634 52.6509781 0.510151672 0.641092701 0.510151672 0.641092701 39.167634 52.6509781 39.167634"></polygon>
    </defs>
    <g id="Page-1" stroke="none" stroke-width="1" fill="none" fill-rule="evenodd">
        <g id="Desktop-HD-Copy-9" transform="translate(-486.000000, -170.000000)">
            <g id="Page-1-Copy-2" transform="translate(719.554632, 397.265278) rotate(31.000000) translate(-719.554632, -397.265278) translate(488.554632, 161.265278)">
                <path d="M30.0972431,336.30086 L33.1526299,334.969626 C48.7761555,328.155455 56.2531044,327.815923 60.2203964,329.224477 L51.3604474,308.943328 L23.461535,321.109328 L30.0972431,336.30086 Z M47.9113599,301.050051 L45.5592504,295.664604 L61.724535,288.618477 L64.9145204,295.916732 L55.9367978,299.833115 L69.3630022,330.572519 L78.3440898,326.659498 L81.5307102,333.957753 L65.3620606,341.003881 C62.6499,334.784732 53.4467248,335.094009 34.5861044,343.316732 L26.2073453,346.970902 L12.8282504,316.345796 L47.9113599,301.050051 Z" id="Fill-1" fill="#FFFFFF"></path>
                <path d="M42.5122759,270.580255 C41.4489474,263.813149 35.217035,258.249532 24.9000569,259.869872 C16.7703051,261.143957 8.98377956,266.727745 10.4037942,275.750553 C11.5815314,283.226979 18.3249182,287.849319 28.3255898,286.279404 C35.4189328,285.166681 44.0433343,280.312383 42.5122759,270.580255 M2.59034891,276.913702 C0.406487591,263.053404 10.5182029,253.344809 22.8406993,251.41183 C33.1610423,249.791489 47.9130423,253.220426 50.4906044,269.595277 C52.5970715,282.998383 42.8016628,292.992723 30.0248964,294.996298 C16.6693562,297.094 4.65307153,290.061319 2.59034891,276.913702" id="Fill-3" fill="#FFFFFF"></path>
                <g id="Group-7" transform="translate(0.000000, 194.424043)">
                    <mask id="mask-2" fill="white">
                        <use xlink:href="#path-1"></use>
                    </mask>
                    <g id="Clip-6"></g>
                    <path d="M49.514765,13.9139617 C48.4110569,13.7963021 11.9584073,9.0193234 11.9584073,9.0193234 L48.5321956,22.9905574 L47.7044146,30.7090255 L8.98714453,36.5785574 C8.98714453,36.5785574 45.2345314,39.6242596 46.7218453,39.7856213 L45.820035,48.1495362 L-0.0006729927,43.2179191 L1.34194745,30.7695362 L36.3140131,25.4815787 L3.25661168,13.0029404 L4.59250219,0.615068085 L50.4165752,5.55004681 L49.514765,13.9139617 Z" id="Fill-5" fill="#FFFFFF" mask="url(#mask-2)"></path>
                </g>
                <polygon id="Fill-8" fill="#FFFFFF" points="37.3463839 189.745102 30.3102453 187.523017 35.9970336 169.544634 43.0331723 171.766719"></polygon>
                <path d="M76.0895642,140.979243 C75.1170898,140.444732 43.3148197,121.965455 43.3148197,121.965455 L71.6747321,148.980094 L67.9194328,155.784179 L29.9121701,146.257115 C29.9121701,146.257115 62.192265,163.062264 63.5046007,163.78503 L59.4430898,171.157243 L19.043338,148.916221 L25.1036372,137.946987 L59.4296299,146.56303 L33.7381336,122.281455 L39.7614182,111.366009 L80.1578051,133.60703 L76.0895642,140.979243 Z" id="Fill-10" fill="#FFFFFF"></path>
                <path d="M74.6698861,71.0874383 L88.9003168,104.758247 C94.2775285,117.445311 92.5849518,119.785055 86.1073971,126.8648 L85.2257766,127.826247 L79.4414044,122.548374 L80.3230248,121.583566 C83.5803095,118.020162 84.9801343,116.201481 82.516981,110.863098 L48.2414628,99.9846298 L54.675273,92.9553106 L78.9736745,100.999864 L68.6836161,77.6393957 L74.6698861,71.0874383 Z" id="Fill-12" fill="#FFFFFF"></path>
                <path d="M104.833082,71.1516468 L109.301754,67.9714766 C112.969564,65.359434 114.537637,61.5976894 112.222542,58.3570085 C110.176645,55.4894766 106.848696,54.9784979 101.421009,58.8410936 C98.4463818,60.9623277 94.1055788,64.7744979 96.5956518,70.8490936 L88.9269,73.5888809 C87.3823818,69.4002 85.4138781,60.7908809 97.0028124,52.5345404 C106.306936,45.9086255 114.25498,45.6934766 119.033228,52.3866255 C120.853674,54.9381574 122.60682,58.9722 117.431506,64.9862851 C123.165404,62.3406255 127.758579,62.5994766 132.196966,68.8119021 C136.214732,74.4427532 135.602309,84.4908809 124.699827,92.2530511 C113.905024,99.9412638 105.546455,96.767817 100.599958,92.1959021 L105.220053,84.7362851 C109.059477,88.0946255 114.806834,89.849434 120.069637,86.1011362 C125.652112,82.1242426 127.523031,78.2246681 124.302761,73.7132638 C120.473433,68.3479872 115.590871,71.5012638 112.93255,73.3972638 L108.625396,76.4664979 L104.833082,71.1516468 Z" id="Fill-14" fill="#FFFFFF"></path>
                <polygon id="Fill-16" fill="#FFFFFF" points="145.29475 77.4319787 127.319115 35.0241064 157.499472 22.253 160.504385 29.3394681 138.137472 38.8060213 142.367231 48.7768298 162.869954 40.1036383 165.770553 46.9480638 145.264465 55.624617 150.079728 66.9770851 173.950779 56.8785319 176.979246 64.0255106"></polygon>
                <g id="Group-20" transform="translate(172.613139, 0.807021)">
                    <mask id="mask-4" fill="white">
                        <use xlink:href="#path-3"></use>
                    </mask>
                    <g id="Clip-19"></g>
                    <path d="M28.0063219,0.756719149 C27.6496358,3.27127234 26.7276358,8.59620851 18.3690664,10.0619106 C10.0104971,11.5276128 7.32862117,6.83131489 6.14078905,4.58905957 L12.0866796,2.22242128 C12.6991029,3.43935745 13.9676942,5.39922979 17.5682051,4.77059149 C21.2360153,4.12850638 21.4446431,1.90642128 21.6061613,0.551655319 L28.0063219,0.756719149 Z M45.5815263,55.5591872 L37.0917234,57.0484213 L31.8793949,27.3645915 L15.8217891,55.2129319 L16.7673438,60.6084638 L8.28090584,62.0976979 L0.316037226,16.7348894 L8.80584015,15.249017 L13.9710591,44.6739957 L30.0320299,16.8256553 L29.1302197,11.6856128 L37.6132927,10.1963787 L45.5815263,55.5591872 Z" id="Fill-18" fill="#FFFFFF" mask="url(#mask-4)"></path>
                </g>
                <path d="M261.566689,58.6222468 L272.920076,13.9754809 L281.27528,16.1000766 L276.904193,33.2985447 L281.32912,34.4247149 C288.166726,36.1593532 289.314178,34.2969702 291.683112,28.9753957 C293.806404,24.0605872 295.401397,21.7746298 297.92512,20.3257362 L306.599996,22.5310128 C302.878346,24.4102043 301.09155,28.5350128 299.634521,32.1387574 C296.676718,39.5311404 292.891134,39.8505021 290.639974,39.9513532 C294.294324,41.7532255 297.151178,44.0290979 295.963346,52.1408851 C294.873098,59.3382894 295.14566,62.7739489 296.505105,67.4937787 L287.389419,65.177566 C286.35974,61.5536511 286.723156,58.5482894 287.466813,52.9476936 C288.297959,47.0310979 287.285105,43.3399489 279.818251,41.4473106 L275.130857,40.2539064 L269.918528,60.7434809 L261.566689,58.6222468 Z" id="Fill-21" fill="#FFFFFF"></path>
                <path d="M320.801824,72.1463745 C326.865488,75.3534383 335.052445,73.7062043 339.941736,64.4783319 C343.79462,57.2103319 343.989788,47.639566 335.907145,43.3668426 C329.210868,39.8269702 321.464722,42.4490979 316.726853,51.3845021 C313.36862,57.728034 312.086569,67.5374809 320.801824,72.1463745 M339.662445,36.421566 C352.07243,42.9836085 353.795291,56.8876085 347.95708,67.9039064 C343.067788,77.128417 331.475488,86.8706298 316.810977,79.1185447 C304.804788,72.7682894 302.674766,58.9416085 308.72497,47.5219064 C315.051101,35.5845021 327.881707,30.1923319 339.662445,36.421566" id="Fill-23" fill="#FFFFFF"></path>
                <path d="M362.887086,81.0642979 L368.594064,86.039617 C373.224254,90.0770213 377.423728,89.9291064 380.99059,85.848 C385.886612,80.2406809 381.532349,76.0990638 378.382743,73.3525532 L373.412692,69.0193191 L362.887086,81.0642979 Z M385.250634,69.5571915 C392.438196,75.8200426 393.740436,84.7520851 387.511889,91.8822553 C382.016904,98.1753617 373.947721,100.061277 364.895969,92.168 L358.246801,86.3757872 L347.943283,98.1753617 L341.442174,92.5108936 L371.767225,57.7979574 L385.250634,69.5571915 Z" id="Fill-25" fill="#FFFFFF"></path>
                <polygon id="Fill-27" fill="#FFFFFF" points="386.635653 141.087489 403.621988 128.800468 392.009499 112.785319 375.023164 125.068979 369.931974 118.043021 407.283069 91.0149362 412.377623 98.0442553 398.305346 108.230213 409.91447 124.242 423.990112 114.059404 429.084667 121.092085 391.730207 148.113447"></polygon>
                <polygon id="Fill-29" fill="#FFFFFF" points="395.251642 155.121923 437.727576 137.187243 450.494247 167.358519 443.394174 170.357157 433.935262 147.995115 423.944685 152.214051 432.616196 172.710349 425.761766 175.608136 417.08689 155.111838 405.716678 159.908987 415.811569 183.773711 408.650926 186.795881"></polygon>
                <g id="Group-33" transform="translate(408.160584, 183.338936)">
                    <mask id="mask-6" fill="white">
                        <use xlink:href="#path-5"></use>
                    </mask>
                    <g id="Clip-32"></g>
                    <path d="M42.2219467,15.5180596 C41.3470562,10.9058043 38.7089248,8.54925106 33.8364577,9.47035745 C28.5097204,10.4755064 27.2243044,13.5077617 28.1597642,18.4427404 L29.6268883,26.1948255 L43.7395453,23.5289957 L42.2219467,15.5180596 Z M21.2346693,20.4799319 C19.5622825,11.6386553 7.00760365,15.8710383 2.4850927,13.4069106 L0.641092701,3.66469787 C6.29759635,7.90716596 18.2533117,1.93005957 22.4729759,11.2218043 C22.4157715,3.93027234 27.9107569,1.69810213 32.143881,0.894655319 C42.3430854,-1.0316 47.7001073,4.45805957 49.389319,13.3665702 L52.6533336,30.6053787 L7.37101971,39.167634 L5.76593212,30.7095915 L22.5705599,27.5294213 L21.2346693,20.4799319 Z" id="Fill-31" fill="#FFFFFF" mask="url(#mask-6)"></path>
                </g>
                <path d="M458.282455,282.868285 L444.220273,279.647774 C437.984996,278.215689 436.060236,281.056328 434.879134,286.206455 C434.222966,289.067264 433.923485,293.881221 434.243156,295.965477 L454.227674,300.540753 L452.30628,308.934923 L407.373923,298.644753 L409.298682,290.253945 L426.739288,294.247647 C426.55758,291.52803 426.695543,287.413306 427.556974,283.658285 C430.067236,272.722668 434.882499,268.671817 443.981361,270.756072 L460.21058,274.477477 L458.282455,282.868285 Z" id="Fill-34" fill="#FFFFFF"></path>
                <path d="M431.369141,357.226111 L407.881696,329.209685 C399.011652,318.657302 399.947112,315.924238 404.059097,307.261132 L404.621046,306.077813 L411.697564,309.432791 L411.13898,310.612749 C409.069528,314.976238 408.268666,317.117643 412.188849,321.504664 L448.146849,321.857643 L444.065148,330.4636 L418.467871,329.888749 L435.17155,349.208451 L431.369141,357.226111 Z" id="Fill-36" fill="#FFFFFF"></path>
                <path d="M387.454012,340.401464 L424.06145,368.424613 L418.815472,375.265677 L404.712909,364.467889 L401.93345,368.091804 C397.636391,373.685677 398.901618,375.477464 402.868909,379.743464 C406.553545,383.632953 408.030764,385.999591 408.36726,388.887294 L402.926114,395.983847 C402.650187,391.828783 399.564515,388.561209 396.82207,385.804613 C391.185756,380.173762 392.387048,376.573379 393.177815,374.46223 C390.075318,377.104528 386.861778,378.835804 379.862654,374.546272 C373.671121,370.71057 370.403742,369.607932 365.52118,368.996102 L371.244982,361.536485 C374.986822,362.017209 377.611493,363.533336 382.470501,366.427762 C387.58188,369.523889 391.380924,370.044953 396.071683,363.933379 L399.009296,360.097677 L382.208034,347.239166 L387.454012,340.401464 Z" id="Fill-38" fill="#FFFFFF"></path>
                <path d="M351.714398,389.562996 C346.391026,393.882783 344.701814,402.058443 351.287047,410.166868 C356.479186,416.55074 365.221361,420.473847 372.321434,414.715251 C378.206755,409.944996 378.822544,401.79623 372.439208,393.943294 C367.906602,388.36623 359.373055,383.35057 351.714398,389.562996 M377.254471,420.890698 C366.348624,429.731974 352.86185,425.876102 344.994566,416.1944 C338.409332,408.089336 333.970945,393.613847 346.852026,383.165677 C357.401186,374.610145 370.978814,378.059251 379.128755,388.093932 C387.655573,398.585804 387.601734,412.496528 377.254471,420.890698" id="Fill-40" fill="#FFFFFF"></path>
                <path d="M329.237451,429.089217 L321.373531,432.770281 C317.880699,434.400706 314.209524,437.490111 316.144378,441.625004 C318.143166,445.880919 322.874305,444.744664 326.010451,443.282323 L334.109918,439.490323 L329.237451,429.089217 Z M320.713999,410.892323 L310.41721,415.706281 C305.093838,418.197302 304.41748,421.824579 305.857685,424.900536 C308.60013,430.746536 314.549385,428.830366 317.803305,427.310877 L326.501736,423.243217 L320.713999,410.892323 Z M326.161874,450.990706 C317.409604,455.08526 311.231531,452.063089 308.711174,446.684366 C307.106086,443.258791 306.897458,437.88343 311.591582,434.824281 C307.415663,435.913472 300.921283,435.133557 297.539495,427.922706 C294.884539,422.251515 295.315254,414.55994 306.079772,409.524111 L325.300444,400.534919 L344.854247,442.250281 L326.161874,450.990706 Z" id="Fill-42" fill="#FFFFFF"></path>
                <path d="M251.29783,438.232038 C251.953998,434.090421 254.911801,423.127911 267.890465,420.388123 C278.564129,418.132421 290.51648,423.215315 294.086706,440.074251 C296.206633,450.098847 293.309399,464.517187 277.58829,467.838549 C265.952246,470.28923 259.58237,463.8314 256.298166,457.78706 L264.215925,453.850506 C265.767173,458.65774 270.64637,461.229443 275.633246,460.173868 C282.982326,458.624123 287.037107,451.897357 284.91718,441.876123 C283.621669,435.74774 279.035224,426.371953 269.000903,428.493187 C263.182881,429.720209 260.359677,434.984634 259.986166,439.862464 L251.29783,438.232038 Z" id="Fill-44" fill="#FFFFFF"></path>
                <path d="M244.754995,425.409162 L244.156031,471.444311 L235.541725,471.336736 L235.773907,453.600396 L231.200922,453.539885 C224.147958,453.445757 223.471601,455.523289 222.418367,461.25163 C221.503097,466.519417 220.486878,469.118013 218.373681,471.111502 L209.429608,470.997204 C212.596039,468.297757 213.37671,463.870396 213.945389,460.031332 C215.092842,452.151502 218.700082,450.964821 220.860389,450.336183 C216.893097,449.438609 213.585338,447.892226 212.841681,439.733374 C212.215798,432.482183 211.149104,429.211247 208.722966,424.938523 L218.121309,425.059545 C219.975404,428.347289 220.328725,431.356013 220.904134,436.966694 C221.479542,442.910183 223.330272,446.2618 231.032674,446.359289 L235.861396,446.423162 L236.137323,425.294864 L244.754995,425.409162 Z" id="Fill-46" fill="#FFFFFF"></path>
                <path d="M183.909725,426.114783 C177.267287,424.420485 169.699484,427.946911 167.118557,438.062272 C165.082754,446.022783 167.148842,455.364953 176.002061,457.620655 C183.344411,459.493123 190.252681,455.126272 192.752849,445.330272 C194.52282,438.374911 193.462856,428.548655 183.909725,426.114783 M173.993177,465.255081 C160.391995,461.789166 155.445499,448.681889 158.52444,436.610017 C161.108732,426.498017 170.07636,414.311847 186.147426,418.403038 C199.304433,421.754655 204.63117,434.687123 201.434455,447.20274 C198.099776,460.286485 186.894447,468.539464 173.993177,465.255081" id="Fill-48" fill="#FFFFFF"></path>
                <polygon id="Fill-50" fill="#FFFFFF" points="113.915792 439.765311 117.435544 432.769609 134.36131 441.274715 151.563004 407.109736 159.26877 410.979055 138.540595 452.143098"></polygon>
                <path d="M113.160021,391.151736 C107.72897,386.966417 99.3737657,387.205098 92.9971599,395.474885 C87.9699044,401.986502 86.1561891,411.385821 93.3942255,416.966247 C99.3973204,421.588587 107.476598,420.314502 113.654671,412.303566 C118.045948,406.618928 120.966736,397.169183 113.160021,391.151736 M88.5183934,423.175311 C77.3971891,414.609694 78.0567219,400.608204 85.6749993,390.74497 C92.058335,382.471821 105.134583,374.834034 118.274766,384.952757 C129.029189,393.246077 128.790277,407.234119 120.892707,417.46714 C112.635087,428.160715 99.070919,431.303906 88.5183934,423.175311" id="Fill-52" fill="#FFFFFF"></path>
            </g>
        </g>
    </g>
</svg>