<?xml version="1.0" encoding="UTF-8"?>
<svg width="73px" height="73px" viewBox="0 0 73 73" version="1.1" xmlns="http://www.w3.org/2000/svg" xmlns:xlink="http://www.w3.org/1999/xlink">
    <!-- Generator: Sketch 41 (35326) - http://www.bohemiancoding.com/sketch -->
    <title>Page 1 Copy 2</title>
    <desc>Created with Sketch.</desc>
    <defs>
        <polygon id="path-1" points="-1.80122581e-12 0.0960842864 -1.80122581e-12 7.52179139 7.87594214 7.52179139 7.87594214 0.0960842864 -1.80122584e-12 0.0960842864"></polygon>
        <polygon id="path-3" points="7.12062377 0.0866507547 0.0493704878 0.0866507547 0.0493704878 9.70073579 7.12062377 9.70073579 7.12062377 0.0866507547"></polygon>
        <polygon id="path-5" points="8.22499457 0.0796945258 0.100149782 0.0796945258 0.100149782 6.11866273 8.22499457 6.11866273"></polygon>
    </defs>
    <g id="Page-1" stroke="none" stroke-width="1" fill="none" fill-rule="evenodd">
        <g id="Desktop-HD-Copy-9" transform="translate(-685.000000, -5996.000000)">
            <g id="Page-1-Copy-2" transform="translate(722.500000, 6032.000000) rotate(31.000000) translate(-722.500000, -6032.000000) translate(686.000000, 5995.000000)">
                <path d="M4.70171058,52.5360182 L5.17901492,52.3280564 C7.61968017,51.263565 8.78770908,51.2105242 9.40746879,51.4305646 L8.02339133,48.262298 L3.66509807,50.1628378 L4.70171058,52.5360182 Z M7.48458412,47.0292315 L7.11714389,46.1879314 L9.6424413,45.0872042 L10.1407723,46.2273181 L8.73829651,46.839125 L10.8357021,51.6411522 L12.2387036,51.0298705 L12.7365089,52.1699844 L10.2106858,53.2707116 C9.78699933,52.2991728 8.34930399,52.3474872 5.40294845,53.632019 L4.09404118,54.2028636 L2.00399486,49.4186917 L7.48458412,47.0292315 Z" id="Fill-1" fill="#1324A5"></path>
                <path d="M6.64115371,42.2693217 C6.47504339,41.2121825 5.50151075,40.3430492 3.8898201,40.5961744 C2.61981208,40.7952086 1.40342195,41.6674928 1.62525282,43.0770118 C1.80923577,44.2449589 2.86266958,44.9670485 4.42494766,44.7218006 C5.53305068,44.547974 6.88033155,43.7896486 6.64115371,42.2693217 M0.404657358,43.2587158 C0.0635004012,41.0934972 1.64312545,39.5768464 3.56811277,39.2748817 C5.18032908,39.0217564 7.48484695,39.5574157 7.88750678,42.115451 C8.21657343,44.2092483 6.68636095,45.7705373 4.69040877,46.0835304 C2.60404211,46.4112278 0.726890354,45.3126012 0.404657358,43.2587158" id="Fill-3" fill="#1324A5"></path>
                <g id="Group-7" transform="translate(0.000000, 30.372402)">
                    <mask id="mask-2" fill="white">
                        <use xlink:href="#path-1"></use>
                    </mask>
                    <g id="Clip-6"></g>
                    <path d="M7.73506377,2.17360178 C7.56264546,2.15522131 1.86811031,1.40897451 1.86811031,1.40897451 L7.58156942,3.59152322 L7.45225569,4.7972816 L1.40394761,5.71420413 C1.40394761,5.71420413 7.06641716,6.18999554 7.29876134,6.21520304 L7.15788297,7.52179139 L-0.000105133116,6.7513874 L0.20963543,4.80673441 L5.67287773,3.98066388 L0.508739141,2.03128447 L0.717428373,0.0960842864 L7.87594214,0.867013425 L7.73506377,2.17360178 Z" id="Fill-5" fill="#1324A5" mask="url(#mask-2)"></path>
                </g>
                <polygon id="Fill-8" fill="#1324A5" points="5.83415192 29.6414709 4.73498521 29.2943427 5.62336003 26.485808 6.72252674 26.8329361"></polygon>
                <path d="M11.8865076,22.0233991 C11.7345903,21.9398993 6.76652495,19.0531163 6.76652495,19.0531163 L11.1968344,23.2732706 L10.6101916,24.3361865 L4.67279897,22.8478942 C4.67279897,22.8478942 9.71550881,25.4731495 9.92051839,25.586058 L9.28604004,26.7377253 L2.97489917,23.2632926 L3.92162287,21.5497083 L9.28393738,22.8956834 L5.27048073,19.1024809 L6.21142211,17.3972991 L12.5220373,20.8717318 L11.8865076,22.0233991 Z" id="Fill-10" fill="#1324A5"></path>
                <path d="M11.6647293,11.1050889 L13.887769,16.3650523 C14.7277826,18.3469914 14.4633728,18.7125 13.4514666,19.8184788 L13.3137422,19.9686734 L12.4101231,19.1441783 L12.5478475,18.9934585 C13.0566918,18.4367931 13.2753686,18.1526836 12.8905814,17.3187358 L7.53615191,15.6193307 L8.54122449,14.5212293 L12.3370556,15.7779278 L10.7295703,12.1286181 L11.6647293,11.1050889 Z" id="Fill-12" fill="#1324A5"></path>
                <path d="M16.3767429,11.1151194 L17.0748268,10.6183218 C17.6478023,10.2102755 17.8927625,9.62262581 17.5311045,9.11637534 C17.2114999,8.66841719 16.6916166,8.58859347 15.8437181,9.19199781 C15.3790297,9.52337131 14.7009211,10.1188983 15.0899136,11.0678554 L13.8919218,11.4958576 C13.6506413,10.8415131 13.3431269,9.49658834 15.1535192,8.20680499 C16.6069845,7.17172234 17.8486066,7.13811235 18.5950517,8.18369812 C18.8794367,8.58229159 19.1533085,9.2124789 18.3448349,10.1519831 C19.240569,9.7386853 19.9581025,9.77912232 20.6514554,10.7496108 C21.2791001,11.6292472 21.1834289,13.1989388 19.4802725,14.4115242 C17.7939373,15.6125562 16.488184,15.1168088 15.7154557,14.4025965 L16.4371945,13.2372752 C17.0369789,13.7619061 17.9348157,14.0360376 18.7569567,13.4504885 C19.6290358,12.8292289 19.9213059,12.2200478 19.418244,11.5152884 C18.8200365,10.6771392 18.0572958,11.1697356 17.64202,11.4659237 L16.969168,11.9453912 L16.3767429,11.1151194 Z" id="Fill-14" fill="#1324A5"></path>
                <polygon id="Fill-16" fill="#1324A5" points="22.6975561 12.096216 19.8894506 5.47137195 24.6041451 3.47630397 25.0735644 4.58333301 21.5794654 6.06217255 22.240227 7.61978551 25.4431073 6.2648828 25.8962311 7.3341006 22.6928251 8.68952847 23.4450525 10.4629806 27.1741241 8.88541169 27.6472231 10.0018935"></polygon>
                <g id="Group-20" transform="translate(26.965162, 0.126071)">
                    <mask id="mask-4" fill="white">
                        <use xlink:href="#path-3"></use>
                    </mask>
                    <g id="Clip-19"></g>
                    <path d="M4.37507248,0.118212636 C4.31935193,0.51102939 4.17531957,1.34287664 2.86956628,1.57184469 C1.563813,1.80081275 1.14485754,1.06716969 0.959297594,0.716890577 L1.88814866,0.347180691 C1.98381979,0.537287195 2.18199572,0.843453195 2.74445788,0.745249006 C3.31743335,0.644944193 3.35002462,0.297816018 3.37525657,0.0861781142 L4.37507248,0.118212636 Z M7.12062377,8.6793072 L5.79436953,8.91195135 L4.98011356,4.27482308 L2.47163745,8.62521612 L2.61934947,9.46809165 L1.2936209,9.70073579 L0.0493704878,2.61427953 L1.37562473,2.38216054 L2.18252138,6.97885178 L4.69152316,2.62845874 L4.55064479,1.82549508 L5.87584769,1.59285093 L7.12062377,8.6793072 Z" id="Fill-18" fill="#1324A5" mask="url(#mask-4)"></path>
                </g>
                <path d="M40.8612466,9.15781015 L42.6348422,2.18321213 L43.9400698,2.51511078 L43.2572302,5.20180933 L43.9484805,5.37773662 C45.0166329,5.64871716 45.1958849,5.35778069 45.5659534,4.5264586 C45.8976484,3.7586804 46.1468139,3.40157426 46.5410631,3.17523198 L47.8962289,3.51973438 C47.3148428,3.81329663 47.0357144,4.45766315 46.8081012,5.02063048 C46.3460411,6.17544872 45.7546674,6.22533855 45.4029971,6.24109323 C45.9738699,6.5225769 46.42016,6.87810757 46.2346,8.14530921 C46.0642844,9.2696684 46.1068633,9.80637792 46.3192322,10.5436971 L44.8952042,10.1818645 C44.7343505,9.61574626 44.7911224,9.14625672 44.9072945,8.27134667 C45.0371339,7.34707196 44.8789085,6.77045057 43.7124566,6.47478769 L42.9802045,6.28835728 L42.1659485,9.48918364 L40.8612466,9.15781015 Z" id="Fill-21" fill="#1324A5"></path>
                <path d="M50.1148005,11.2705131 C51.0620498,11.771512 52.3409942,11.5141855 53.1047862,10.0726321 C53.7066733,8.93724459 53.7371619,7.44212521 52.4745132,6.77465182 C51.4284387,6.22166246 50.2183566,6.63128421 49.4782195,8.02714909 C48.9536052,9.01811863 48.7533266,10.5505241 50.1148005,11.2705131 M53.061156,5.68967934 C54.9998106,6.71478402 55.2689514,8.88682961 54.3569216,10.6077661 C53.5931296,12.0487944 51.7822117,13.5706968 49.4913611,12.3596868 C47.6157863,11.367667 47.28304,9.20769998 48.2281867,7.42374475 C49.216438,5.55891547 51.2208008,4.71656511 53.061156,5.68967934" id="Fill-23" fill="#1324A5"></path>
                <path d="M56.6892472,12.6636472 L57.580776,13.4408782 C58.3040918,14.0715906 58.9601225,14.0484838 59.517328,13.4109443 C60.2821714,12.5349839 59.6019601,11.8879916 59.1099372,11.4589391 L58.3335291,10.7820129 L56.6892472,12.6636472 Z M60.1828206,10.8660379 C61.3056423,11.8444037 61.5090748,13.2397434 60.5360679,14.3535995 C59.677656,15.3366917 58.4171099,15.6313042 57.0030696,14.3982377 L55.9643544,13.4933938 L54.3547664,15.3366917 L53.3391805,14.4518037 L58.0764787,9.02904188 L60.1828206,10.8660379 Z" id="Fill-25" fill="#1324A5"></path>
                <polygon id="Fill-27" fill="#1324A5" points="60.3991846 22.0403091 63.0527444 20.1208636 61.2386725 17.61902 58.5851127 19.5379404 57.7897807 18.4403642 63.6246685 14.2181092 64.4205262 15.3162106 62.2221928 16.9074335 64.035739 19.408752 66.2345981 17.8180542 67.0304558 18.9166807 61.1950422 23.1378854"></polygon>
                <polygon id="Fill-29" fill="#1324A5" points="61.7451513 24.2327308 68.3806278 21.431023 70.375003 26.1442989 69.2658486 26.6127382 67.7882027 23.1193999 66.2275016 23.7784708 67.5821418 26.9803474 66.511361 27.433032 65.1561952 24.2311553 63.3799712 24.9805531 64.9569679 28.7086361 63.8383516 29.1807515"></polygon>
                <g id="Group-33" transform="translate(63.761752, 28.640717)">
                    <mask id="mask-6" fill="white">
                        <use xlink:href="#path-5"></use>
                    </mask>
                    <g id="Clip-32"></g>
                    <path d="M6.59579926,2.42418964 C6.45912621,1.70367549 6.0470044,1.33554107 5.28584066,1.47943384 C4.45371205,1.63645551 4.25290781,2.1101463 4.39904283,2.88107544 L4.62823302,4.09208538 L6.83287444,3.6756366 L6.59579926,2.42418964 Z M3.31722309,3.19932003 C3.0559673,1.81815952 1.09470905,2.47933103 0.388214516,2.09439162 L0.100149782,0.572489272 C0.98379361,1.23523626 2.85148339,0.30150873 3.51066802,1.75304016 C3.5017317,0.613976603 4.36014358,0.265272959 5.02143087,0.139760654 C6.61472322,-0.161153785 7.45158281,0.696426109 7.71546693,2.08808974 L8.22536254,4.78109017 L1.15148093,6.11866273 L0.900738449,4.79737001 L3.52591232,4.30057235 L3.31722309,3.19932003 Z" id="Fill-31" fill="#1324A5" mask="url(#mask-6)"></path>
                </g>
                <path d="M71.5916559,44.1889248 L69.3948995,43.6858252 C68.4208412,43.4621087 68.1201605,43.9058656 67.9356519,44.7104047 C67.8331471,45.1573126 67.7863628,45.9093361 67.8363011,46.2349329 L70.9582289,46.9496703 L70.6580739,48.2609851 L63.6388615,46.6534823 L63.9395422,45.3426927 L66.6640668,45.9665781 C66.6356809,45.5417268 66.6572332,44.8989358 66.7918036,44.3123364 C67.1839501,42.6040037 67.9361775,41.9711906 69.3575772,42.2967874 L71.8928623,42.8781352 L71.5916559,44.1889248 Z" id="Fill-34" fill="#1324A5"></path>
                <path d="M67.3873301,55.8049048 L63.7181844,51.428254 C62.33253,49.779789 62.478665,49.3528371 63.1210283,47.9995098 L63.2088145,47.8146549 L64.3142892,48.3387607 L64.2270287,48.5230905 C63.9037444,49.2047431 63.778636,49.5392675 64.3910363,50.2245962 L70.0082987,50.2797376 L69.3706663,51.6241372 L65.3719283,51.5343355 L67.9813322,54.5524075 L67.3873301,55.8049048 Z" id="Fill-36" fill="#1324A5"></path>
                <path d="M60.5270264,53.1766036 L66.2457422,57.5543048 L65.4262296,58.6229974 L63.2231651,56.936196 L62.7889654,57.5023143 C62.1176904,58.376174 62.3153407,58.6560822 62.9351004,59.3225053 C63.5107042,59.9301109 63.7414714,60.2998208 63.794038,60.7509299 L62.9440367,61.8595344 C62.9009321,61.2104415 62.4188968,60.6999897 61.9904794,60.2693617 C61.1099895,59.3897253 61.2976521,58.8272831 61.4211836,58.4974851 C60.9365199,58.9102578 60.4345093,59.1807132 59.3411249,58.510614 C58.3739002,57.9114109 57.863479,57.7391597 57.1007382,57.6435813 L57.9948954,56.4782599 C58.5794355,56.5533573 58.9894546,56.7902027 59.7485157,57.242362 C60.5470017,57.7260308 61.1404781,57.80743 61.873256,56.8526962 L62.332162,56.2534931 L59.7075138,54.2447711 L60.5270264,53.1766036 Z" id="Fill-38" fill="#1324A5"></path>
                <path d="M54.9438798,60.8564863 C54.1122769,61.5313118 53.8483928,62.8084914 54.8771203,64.0751679 C55.6882223,65.0724393 57.0539014,65.6852965 58.1630558,64.7857041 C59.0824449,64.0405076 59.1786417,62.7675293 58.1814541,61.5407646 C57.4733825,60.6695307 56.1402947,59.8859978 54.9438798,60.8564863 M58.9336815,65.7504158 C57.2299994,67.1315764 55.1231318,66.5292223 53.8941257,65.0167728 C52.8653981,63.7506215 52.1720452,61.4892993 54.1842931,59.8571142 C55.8322546,58.520592 57.9533152,59.0594021 59.2264772,60.626993 C60.5585138,62.2660052 60.5501031,64.4391011 58.9336815,65.7504158" id="Fill-40" fill="#1324A5"></path>
                <path d="M51.4325915,67.0311665 L50.204111,67.6062124 C49.6584702,67.8609131 49.084969,68.3435316 49.3872267,68.9894736 C49.6994721,69.6543212 50.4385579,69.4768184 50.9284782,69.2483755 L52.1937552,68.6559995 L51.4325915,67.0311665 Z M50.1010806,64.1884966 L48.4925439,64.9405201 C47.660941,65.3296608 47.5552822,65.8963042 47.7802671,66.376822 C48.2086845,67.2900685 49.1380613,66.9907295 49.6463799,66.7533589 L51.0052254,66.1179201 L50.1010806,64.1884966 Z M50.9521331,70.4525584 C49.584877,71.0921986 48.619755,70.6200832 48.2260315,69.7798335 C47.975289,69.2446994 47.9426977,68.4049748 48.6760012,67.9270828 C48.0236502,68.0972334 47.0091157,67.9753972 46.4808218,66.8489374 C46.0660717,65.962999 46.1333568,64.7614419 47.814961,63.9747581 L50.8175628,62.5704907 L53.8722054,69.0871526 L50.9521331,70.4525584 Z" id="Fill-42" fill="#1324A5"></path>
                <path d="M39.2570729,68.4594335 C39.3595777,67.8124412 39.8216377,66.0999072 41.8491299,65.671905 C43.5165411,65.3195253 45.3837052,66.1135613 45.9414363,68.7472191 C46.2726057,70.3132345 45.8200076,72.565629 43.364098,73.0844832 C41.5463465,73.467322 40.5512616,72.4584972 40.038212,71.5142665 L41.2751031,70.8993087 C41.5174349,71.6502819 42.27965,72.0520263 43.0586863,71.8871273 C44.20674,71.6450304 44.840167,70.594193 44.5089977,69.0287027 C44.3066164,68.0713432 43.5901342,66.6066829 42.0225995,66.9380563 C41.1137237,67.1297383 40.6726903,67.9521328 40.6143414,68.7141342 L39.2570729,68.4594335 Z" id="Fill-44" fill="#1324A5"></path>
                <path d="M38.2349688,66.4562781 L38.1414003,73.6477656 L36.7956964,73.6309606 L36.8319674,70.8602371 L36.1175879,70.8507843 C35.0157928,70.8360799 34.910134,71.1606264 34.7456007,72.0554924 C34.6026197,72.878412 34.4438687,73.2843576 34.1137507,73.5957752 L32.7165316,73.5779199 C33.2111829,73.1562195 33.3331373,72.464589 33.4219748,71.8648607 C33.6012268,70.6338948 34.1647403,70.4485147 34.5022176,70.3503105 C33.8824578,70.2100939 33.3657286,69.9685221 33.2495565,68.6939682 C33.1517827,67.5612066 32.9851467,67.0502297 32.6061418,66.3827563 L34.0743258,66.4016619 C34.3639675,66.9152646 34.4191624,67.3852793 34.5090512,68.2617648 C34.59894,69.1902407 34.8880561,69.7138214 36.0913046,69.7290509 L36.8456347,69.7390289 L36.8887393,66.4384228 L38.2349688,66.4562781 Z" id="Fill-46" fill="#1324A5"></path>
                <path d="M28.7298839,66.5665084 C27.6922201,66.3018297 26.5099982,66.8527185 26.1068127,68.4329132 C25.788785,69.6764828 26.1115437,71.1358915 27.4945698,71.4882713 C28.6415721,71.7807832 29.7207635,71.0986055 30.111333,69.5683006 C30.3878331,68.4817527 30.2222485,66.9467214 28.7298839,66.5665084 M27.1807475,72.6809008 C25.0560072,72.1394648 24.2832788,70.0918812 24.7642628,68.2060457 C25.167974,66.6263762 26.5688727,64.7226854 29.0794515,65.3618003 C31.1348039,65.885381 31.9669325,67.9056564 31.4675502,69.8608126 C30.9466156,71.9047201 29.1961493,73.1939783 27.1807475,72.6809008" id="Fill-48" fill="#1324A5"></path>
                <polygon id="Fill-50" fill="#1324A5" points="17.7956195 68.6989572 18.3454656 67.6061074 20.9895635 68.9347523 23.6767659 63.597591 24.88054 64.2020456 21.6424401 70.6325819"></polygon>
                <path d="M17.677555,61.104675 C16.8291307,60.4508557 15.5239031,60.4881418 14.5277669,61.7800258 C13.7424225,62.7972531 13.4590888,64.2655895 14.5897954,65.1373486 C15.5275828,65.8594383 16.7897058,65.6604041 17.7548278,64.4089571 C18.4408214,63.5209182 18.8970991,62.0447044 17.677555,61.104675 M13.828106,66.1073119 C12.0907813,64.7692142 12.1938117,62.5819391 13.3839186,61.0411311 C14.3811062,59.748722 16.4238426,58.5555674 18.4765666,60.1362872 C20.1565938,61.4318473 20.1192716,63.6170218 18.8855345,65.2155969 C17.5955511,66.8861184 15.4765932,67.3771394 13.828106,66.1073119" id="Fill-52" fill="#1324A5"></path>
            </g>
        </g>
    </g>
</svg>